<?xml version="1.0" encoding="utf-8"?>
<!-- Generator: Adobe Illustrator 25.2.0, SVG Export Plug-In . SVG Version: 6.00 Build 0)  -->
<svg version="1.1" id="Layer_1" xmlns="http://www.w3.org/2000/svg" xmlns:xlink="http://www.w3.org/1999/xlink" x="0px" y="0px"
	 viewBox="0 0 636.2 152.3" style="enable-background:new 0 0 636.2 152.3;" xml:space="preserve" fill="#ffffff">
<style type="text/css">
	.st0{opacity:0.68;enable-background:new    ;}
	.st1{fill-rule:evenodd;clip-rule:evenodd;fill:#ffffff;}
	.st2{fill-rule:evenodd;clip-rule:evenodd;fill:#ffffff;}
</style>
<g id="Layer_2_1_">
	<g id="Layer_1-2">
		<g>
			<g>
				<path class="st0" d="M174.8,125.1c-1.4,0-2.6-1.2-2.6-2.6v-0.1l0.2-69.6c-0.1-1.4,0.8-2.1,2.2-2.1h16.6c1.4-0.1,2.6,0.9,2.7,2.3
					c0,0.1,0,0.2,0,0.3l-0.2,69.6c0.1,1.2-0.7,2.2-1.9,2.3c-0.1,0-0.3,0-0.4,0L174.8,125.1z M193.4,29c0,6.1-5,11.1-11.1,11.1
					s-11.1-5-11.1-11.1s4.9-11,11-11.1c6.1,0,11.1,5,11.1,11.1l0,0C193.3,29,193.4,29,193.4,29z"/>
				<path class="st0" d="M211.7,125.1c-1.4,0.1-2.7-1-2.8-2.4c0-0.1,0-0.2,0-0.3l0.3-65.5c0-1.1,0.7-2.2,1.7-2.6
					c8.9-3.6,18.5-5.6,28.1-5.7c21.6,0,33.8,13.8,33.7,34.1l-0.2,40.1c0.1,1.2-0.7,2.2-1.9,2.3c-0.1,0-0.3,0-0.4,0h-16.4
					c-1.5,0-2.7-1.2-2.8-2.7V80.6c0.1-9-3.7-13.2-11.3-13.2c-3.1-0.1-6.1,0.5-8.9,1.7v53.7c0.2,1.1-0.6,2.1-1.6,2.3
					c-0.2,0-0.4,0-0.7,0C228.5,125.1,211.7,125.1,211.7,125.1z"/>
				<path d="M308.3,70.5v27.6c0,6.4,2.9,9.9,8.7,9.9h3.9c1.7-0.1,2.8,0.6,2.7,2.4v13.3c0,1.4-0.6,2.3-2,2.4
					c-2.4,0.5-4.8,0.7-7.2,0.7c-15.9,0-27.7-9.6-27.7-30.5V35c-0.1-1.2,0.7-2.2,1.9-2.3c0.1,0,0.3,0,0.4,0h14c1.5-0.1,2.8,1,2.9,2.5
					v0.1l2.1,17h11.5c1.4-0.1,2.7,1,2.8,2.4c0,0.1,0,0.2,0,0.3v13.2c0.2,1.1-0.6,2.1-1.6,2.3c-0.2,0-0.4,0-0.7,0H308.3z"/>
				<path d="M362.7,48.6c18.3,0,33.1,9.7,32.9,30.8v13.9c0.1,1.1-0.8,2-1.9,2.1c-0.1,0-0.2,0-0.3,0h-39.9v2
					c-0.1,7.6,4,11.3,11.9,11.3c6.3-0.1,12.4-2.1,17.6-5.7c1.3-1,2.4-0.9,3.4,0.7l7.8,11c0.8,1.4,0.9,2.7-0.3,3.4
					c-6.8,5.3-15.9,8.7-28.4,8.7c-18.8,0-33.8-11.5-33.8-30.1V76.1C332,57.4,345.3,48.6,362.7,48.6z M374.6,77.5
					c0-5.7-3.3-10.7-10.6-10.7s-10.2,3.7-10.3,10.5v3.9h20.8L374.6,77.5z"/>
				<path d="M475.8,48.6c19.8,0,32.3,14.6,32.5,35l-0.3,39.3c0.2,1.1-0.6,2.1-1.7,2.3c-0.2,0-0.4,0-0.5,0h-16.2
					c-1.5,0.1-2.7-1.1-2.8-2.6v-0.1V80.6c0-9.2-4-13.2-10.9-13.2c-3.2,0-6.3,0.9-9.1,2.6c1.5,4.4,2.2,9,2.2,13.6l-0.2,39.3
					c0.2,1.1-0.6,2.1-1.7,2.3c-0.2,0-0.4,0-0.5,0h-16.1c-1.4,0.1-2.7-1-2.8-2.4c0-0.1,0-0.2,0-0.3V80.6c0-9.2-3.7-13.2-10.2-13.2
					c-2.8-0.1-5.5,0.5-8,1.7l-0.4,53.7c0,1.6-0.7,2.3-2.2,2.3h-16.3c-1.4,0.1-2.5-1-2.6-2.4c0-0.1,0-0.2,0-0.3l0.5-65.5
					c0-1.1,0.7-2.2,1.7-2.6c8.5-3.7,17.6-5.6,26.8-5.7c6.7-0.1,13.3,1.9,18.8,5.7C461.8,50.7,468.7,48.7,475.8,48.6z"/>
				<path d="M552.2,48.8c20.6,0,34.5,14,34.6,33.2v16.5c0.1,16.9-11.1,28.5-28.1,28.5c-5,0.1-9.9-1-14.4-3.2V150
					c0.2,1.1-0.6,2.1-1.7,2.3c-0.2,0-0.4,0-0.5,0h-16.8c-1.4,0.1-2.5-1-2.6-2.4c0-0.1,0-0.2,0-0.3V57.2c0-1.1,0.6-2.1,1.6-2.6
					C532,50.9,542.6,48.8,552.2,48.8z M564.9,80.5c0.1-9.3-3.7-12.9-11.4-12.9c-3.2-0.1-6.3,0.7-9.1,2.1v36.4
					c2.9,1.8,6.2,2.7,9.6,2.7c7.3,0,11-4.3,11-13.2L564.9,80.5z"/>
				<path d="M620.9,70.5v27.6c0,6.4,2.9,9.9,8.7,9.9h3.9c1.7-0.1,2.8,0.6,2.7,2.4v13.3c0,1.4-0.6,2.3-2,2.4
					c-2.4,0.5-4.8,0.7-7.2,0.7c-15.9,0-27.7-9.6-27.7-30.5V35c-0.1-1.2,0.7-2.2,1.9-2.3c0.1,0,0.3,0,0.4,0h14c1.5-0.1,2.8,1,2.9,2.5
					v0.1l2.1,17h11.5c1.4-0.1,2.7,1,2.8,2.4c0,0.1,0,0.2,0,0.3v13.2c0.2,1.1-0.6,2.1-1.6,2.3c-0.2,0-0.4,0-0.7,0H620.9z"/>
			</g>
		</g>
	</g>
</g>
<g id="Layer_x0020_1_1_">
	<path class="st1" d="M67.4,125.9c0,0.2,0,0.3-0.1,0.5"/>
	<path class="st1" d="M67.6,124.7c0,0.2-0.1,0.4-0.1,0.5"/>
	<path class="st1" d="M76.6,8.5L76.6,8.5L76.6,8.5c37.7,0,68.2,30.5,68.2,68.2c0,31.3-21.1,57.7-49.9,65.7l0,0
		c-1.9,0.5-3.8,1-5.7,1.3c-0.5-2.3-1-4.6-1.5-7l0,0l0-0.1c0-0.2-0.1-0.3-0.1-0.5l0-0.2l-0.1-0.5l0-0.1c-0.2-0.8-0.3-1.6-0.5-2.5l0,0
		l-0.1-0.6l0-0.1l-0.1-0.5l0-0.2l-0.1-0.5l0,0c-0.1-0.6-0.2-1.3-0.3-1.9v0c0-0.2-0.1-0.4-0.1-0.5l0-0.1l-0.1-0.5l0-0.2l-0.1-0.5
		l0-0.2c0-0.2-0.1-0.3-0.1-0.5l0-0.2c0-0.2-0.1-0.3-0.1-0.5c0-0.2-0.1-0.4-0.1-0.6c0-0.2-0.1-0.4-0.1-0.5l0-0.1c0-0.2,0-0.3-0.1-0.5
		l0-0.3l-0.1-0.4l0-0.2l-0.1-0.4l0-0.2l-0.1-0.4l0-0.2c0-0.3-0.1-0.5-0.1-0.7l0-0.3l0-0.3l0-0.3l0-0.4l0-0.3l0-0.4l0-0.3
		c0-0.1,0-0.3,0-0.4l0-0.3l0-0.4c0-0.1,0-0.3,0-0.4c0-0.2,0-0.3,0-0.5l0-0.3l0-0.3l0-0.3l0-0.3l0-0.3l0-0.3l0-0.4l0-0.2
		c0-0.1,0-0.3,0-0.4l0-0.2c0-0.2,0-0.4,0-0.6l0-0.2c0-0.1,0-0.2,0-0.4l0-0.2c0-0.1,0-0.2,0-0.3l0-0.3c0-0.1,0-0.2,0-0.3l0-0.2
		c0-0.1,0-0.2,0-0.3l0-0.2c0-0.2,0-0.3,0-0.5l0-0.1l0,0c0-0.2,0-0.3,0-0.5l0-0.2c0-0.1,0-0.2,0-0.3c0-0.1,0-0.1,0-0.2
		c0-0.1,0-0.2,0-0.3l0-0.2c0-0.1,0-0.2,0-0.3l0-0.2c0-0.1,0-0.2,0-0.3c0,0,0-0.1,0-0.1c0-0.2,0-0.3,0-0.5l0,0c0-0.1,0-0.3,0-0.4
		c0-0.1,0-0.1,0-0.2c0-0.1,0-0.2,0-0.3c0-0.1,0-0.1,0-0.2c0-0.1,0-0.2,0-0.3l0-0.1c0-0.1,0-0.2,0-0.3c0,0,0-0.1,0-0.1
		c0-0.1,0-0.2,0-0.3l0-0.1c0-0.1,0-0.3,0.1-0.4c0,0,0-0.1,0-0.1c0-0.1,0-0.2,0-0.3c0,0,0-0.1,0-0.1c0-0.1,0-0.1,0-0.2l0-0.1
		c0-0.1,0-0.1,0-0.2c0,0,0-0.1,0-0.1c0-0.1,0-0.1,0.1-0.2c0,0,0-0.1,0-0.1c0-0.1,0.1-0.2,0.1-0.3c0.1-0.2,0.1-0.4,0.2-0.6
		c0,0,0-0.1,0-0.1c0.1-0.2,0.2-0.4,0.3-0.6c0,0,0-0.1,0.1-0.1c0.1-0.2,0.2-0.4,0.3-0.6l0,0c0.1-0.2,0.2-0.4,0.3-0.6c0,0,0-0.1,0-0.1
		c0.1-0.2,0.2-0.4,0.4-0.6l0.1-0.1c0.1-0.2,0.3-0.4,0.4-0.6l0.1-0.1c0.1-0.2,0.3-0.4,0.4-0.6l0,0c0.1-0.2,0.3-0.4,0.5-0.6l0.1-0.1
		c0.2-0.2,0.3-0.4,0.5-0.6l0.1-0.1c0.3-0.4,0.7-0.8,1.1-1.2l0.1-0.1c0.2-0.2,0.4-0.4,0.6-0.6l0.1-0.1c0.4-0.4,0.8-0.8,1.3-1.2l0,0
		c0.2-0.2,0.4-0.4,0.7-0.6l0,0c5-4.6,11.7-9.2,17.7-14.3l0.1-0.1c0.3-0.3,0.6-0.5,0.9-0.8c7.4-6.4,13.7-13.8,14.9-23.3
		c0.5-3.8-2-6.1-6.1-4.4c-10.8,4.4-38.6-1.8-43.4,14.5l0,0l0,0c-4.8-16.3-32.6-10.1-43.4-14.5c-4.1-1.7-6.6,0.7-6.1,4.4
		c1.2,9.5,7.5,16.9,14.9,23.3c0.3,0.3,0.6,0.5,0.9,0.8l0.1,0.1c6.1,5.1,12.7,9.7,17.7,14.3l0,0c0.2,0.2,0.4,0.4,0.7,0.6l0,0
		c0.4,0.4,0.9,0.8,1.3,1.2l0.1,0.1c0.2,0.2,0.4,0.4,0.6,0.6l0.1,0.1c0.4,0.4,0.7,0.8,1.1,1.2l0.1,0.1c0.2,0.2,0.3,0.4,0.5,0.6
		l0.1,0.1c0.2,0.2,0.3,0.4,0.5,0.6l0,0c0.1,0.2,0.3,0.4,0.4,0.6l0.1,0.1c0.1,0.2,0.3,0.4,0.4,0.6l0.1,0.1c0.1,0.2,0.2,0.4,0.4,0.6
		c0,0,0,0.1,0,0.1c0.1,0.2,0.2,0.4,0.3,0.6l0,0c0.1,0.2,0.2,0.4,0.3,0.6c0,0,0,0.1,0.1,0.1c0.1,0.2,0.2,0.4,0.3,0.6c0,0,0,0.1,0,0.1
		c0.1,0.2,0.2,0.4,0.2,0.6c0,0.1,0.1,0.2,0.1,0.3c0,0,0,0.1,0,0.1c0,0.1,0,0.1,0.1,0.2c0,0,0,0.1,0,0.1c0,0.1,0,0.1,0,0.2l0,0.1
		c0,0.1,0,0.1,0,0.2c0,0,0,0.1,0,0.1c0,0.1,0,0.2,0,0.3c0,0,0,0.1,0,0.1c0,0.1,0,0.2,0.1,0.4l0,0.1c0,0.1,0,0.2,0,0.3
		c0,0,0,0.1,0,0.1c0,0.1,0,0.2,0,0.3l0,0.1c0,0.1,0,0.2,0,0.3c0,0.1,0,0.1,0,0.2c0,0.1,0,0.2,0,0.3c0,0.1,0,0.1,0,0.2
		c0,0.1,0,0.3,0,0.4l0,0c0,0.2,0,0.3,0,0.5c0,0,0,0.1,0,0.1c0,0.1,0,0.2,0,0.3l0,0.2c0,0.1,0,0.2,0,0.3l0,0.2c0,0.1,0,0.2,0,0.3
		c0,0.1,0,0.1,0,0.2c0,0.1,0,0.2,0,0.3l0,0.2c0,0.2,0,0.3,0,0.5l0,0l0,0.1c0,0.2,0,0.3,0,0.5l0,0.2c0,0.1,0,0.2,0,0.3l0,0.2
		c0,0.1,0,0.2,0,0.3l0,0.3c0,0.1,0,0.2,0,0.3l0,0.2c0,0.1,0,0.2,0,0.4l0,0.2c0,0.2,0,0.4,0,0.6l0,0.2c0,0.1,0,0.3,0,0.4l0,0.2l0,0.4
		l0,0.3l0,0.3l0,0.3l0,0.3l0,0.3l0,0.3c0,0.2,0,0.3,0,0.5c0,0.1,0,0.3,0,0.4l0,0.4l0,0.3c0,0.1,0,0.3,0,0.4l0,0.3l0,0.4l0,0.3l0,0.4
		l0,0.3l0,0.3l0,0.3c0,0.2-0.1,0.5-0.1,0.7l0,0.2l-0.1,0.4l0,0.2l-0.1,0.4l0,0.2l-0.1,0.4l0,0.3c0,0.1,0,0.3-0.1,0.5l0,0.1
		c0,0.2-0.1,0.4-0.1,0.5c0,0.2-0.1,0.4-0.1,0.6c0,0.2,0,0.3-0.1,0.5l0,0.2c0,0.2-0.1,0.3-0.1,0.5l0,0.2l-0.1,0.5l0,0.2l-0.1,0.5
		l0,0.1c0,0.2-0.1,0.4-0.1,0.5v0c-0.1,0.6-0.2,1.3-0.3,1.9l0,0l-0.1,0.5l0,0.2l-0.1,0.5l0,0.1l-0.1,0.6l0,0
		c-0.1,0.8-0.3,1.6-0.5,2.5l0,0.1l-0.1,0.5l0,0.2c0,0.2-0.1,0.3-0.1,0.5l0,0.1l0,0c-0.5,2.4-1,4.8-1.5,7c-1.9-0.4-3.8-0.8-5.7-1.3
		l0,0c-28.8-8-49.9-34.4-49.9-65.7C8.4,39.1,39,8.5,76.6,8.5L76.6,8.5z"/>
	<path class="st2" d="M59.4,142.7c1.6-6.2,4.5-14.5,5.1-22.6c0.7-9.8-2.6-12.6-11.7-18.1c-11.6-6.9-25.1-13.7-26.9-21.9
		c-0.6-2.8,2.1-4.5,6.4-3.3c2.7,0.8,6.3,1.1,10.4,1.3l0.2,0.2l0.1,0.1c5.1,4.4,23.7,15.9,25.5,26c1.5,8.5-2,28.3-4.5,39.3
		C62.5,143.5,61,143.1,59.4,142.7L59.4,142.7z"/>
	<path class="st1" d="M85.9,125.9c0,0.2,0,0.3,0.1,0.5"/>
	<path class="st1" d="M85.7,124.7c0,0.2,0.1,0.4,0.1,0.5"/>
	<path class="st2" d="M93.8,142.7c-1.6-6.2-4.5-14.5-5.1-22.6c-0.7-9.8,2.6-12.6,11.7-18.1c11.6-6.9,25.1-13.7,26.9-21.9
		c0.6-2.8-2.1-4.5-6.4-3.3c-2.7,0.8-6.3,1.1-10.4,1.3l-0.2,0.2l-0.1,0.1c-5.1,4.4-23.7,15.9-25.5,26c-1.5,8.5,2,28.3,4.5,39.3
		C90.8,143.5,92.3,143.1,93.8,142.7L93.8,142.7z"/>
</g>
</svg>
